# xmcd
#
# Track frame offsets:
#	150
#	20267
#	39170
#	56027
#	75072
#	99315
#	119952
#	148247
#	166035
#	185967
#	205017
#	226277
#	243067
#	261357
#	277480
#	296387
#
# Disc length: 4144 seconds
#
# Revision: 1
# Processed by: cddbd v1.5.1PL0 Copyright (c) Steve Scherf et al.
# Submitted via: audiograbber 1.82.02
#
DISCID=e1102e10
DTITLE=Various Artist - Merry Christmas
DYEAR=1999
DGENRE=Pop
TTITLE0=East 17 - Stay Another Day
TTITLE1=Elton John - Step Into Christmas
TTITLE2=Band Aid - Do They Know It's Christmas
TTITLE3=Whigfield - Last Christmas
TTITLE4=The Waitresses - Christmas Wrapping
TTITLE5=Vanessa Williams - Have Yourself A Merry Little Christmas
TTITLE6=Marvin Sease - Funky Christamas
TTITLE7=Kuirin Blow - Christmas Rapping
TTITLE8=Tony! Toni! Tone! - My Christmas
TTITLE9=Lowe Unlimited - It May Be Winter Outside
TTITLE10=Sharon Bryant - Silent Night
TTITLE11=Squeeze - Christmas Day
TTITLE12=Chris De Burgh - A Spaceman Came Travelling
TTITLE13=Shawn Phillips - A Christmas Song
TTITLE14=David Essex - A Winters Tale
TTITLE15=Metal Guru's - Merry Christmas Everybody
EXTD=UPC 731455425420\n\nSpectrum  554 2542
EXTT0=
EXTT1=
EXTT2=
EXTT3=
EXTT4=
EXTT5=
EXTT6=
EXTT7=
EXTT8=
EXTT9=
EXTT10=
EXTT11=
EXTT12=
EXTT13=
EXTT14=
EXTT15=
PLAYORDER=
